<svg width="98" height="81" viewBox="0 0 98 81" fill="none" xmlns="http://www.w3.org/2000/svg">
<path d="M89.5416 62.0928H8.33056C7.45615 62.0928 6.74858 61.3853 6.74858 60.5108V1.58198C6.74858 0.707567 7.45615 0 8.33056 0H89.5416C90.416 0 91.1236 0.707567 91.1236 1.58198V60.5108C91.1236 61.3853 90.416 62.0928 89.5416 62.0928ZM9.91255 58.9289H87.9596V3.16397H9.91255V58.9289Z" fill="white"/>
<path d="M91.5253 80.6811H6.34536C4.09907 80.6811 2.06752 79.5302 0.910386 77.6037C-0.245203 75.6772 -0.303909 73.3428 0.752806 71.3607L6.93397 59.7662C7.20897 59.2517 7.74659 58.9289 8.33057 58.9289H89.5416C90.1256 58.9289 90.6632 59.2517 90.9382 59.7662L97.1194 71.3607C98.1761 73.3444 98.1158 75.6787 96.9602 77.6052C95.8031 79.5317 93.7715 80.6811 91.5253 80.6811ZM9.28068 62.0928L3.546 72.85C3.01609 73.8418 3.04545 75.0113 3.62324 75.9753C4.20258 76.9409 5.22067 77.5172 6.34536 77.5172H91.5253C92.6499 77.5172 93.668 76.9409 94.2474 75.9769C94.8267 75.0113 94.8561 73.8434 94.3262 72.85L88.5915 62.0928H9.28068Z" fill="white"/>
<path d="M95.7228 73.6873H2.1494C1.27498 73.6873 0.567413 72.9798 0.567413 72.1054C0.567413 71.2309 1.27498 70.5234 2.1494 70.5234H95.7228C96.5972 70.5234 97.3048 71.2309 97.3048 72.1054C97.3048 72.9798 96.5972 73.6873 95.7228 73.6873Z" fill="white"/>
<path d="M21.6939 37.9903L18.1116 23.8734H20.0388L21.7144 31.0159C22.1331 32.7751 22.5108 34.5342 22.7615 35.896H22.8033C23.0344 34.4924 23.4736 32.8168 23.9554 30.9946L25.8407 23.8734H27.7466L29.464 31.0363C29.8622 32.7119 30.2391 34.3876 30.4489 35.8747H30.4907C30.784 34.3253 31.1814 32.7537 31.6214 30.9946L33.4855 23.8734H35.3495L31.3494 37.9903H29.4435L27.663 30.639C27.223 28.8371 26.9297 27.4549 26.7412 26.0308H26.6994C26.4479 27.4344 26.1341 28.8167 25.6105 30.639L23.5998 37.9903H21.6939Z" fill="white"/>
<path d="M41.65 37.9903L38.0677 23.8734H39.9949L41.6705 31.0159C42.0892 32.7751 42.467 34.5342 42.7177 35.896H42.7594C42.9905 34.4924 43.4297 32.8168 43.9115 30.9946L45.7969 23.8734H47.7027L49.4201 31.0363C49.8183 32.7119 50.1952 34.3876 50.405 35.8747H50.4468C50.7401 34.3253 51.1375 32.7537 51.5775 30.9946L53.4416 23.8734H55.3057L51.3055 37.9903H49.3996L47.6191 30.639C47.1791 28.8371 46.8858 27.4549 46.6974 26.0308H46.6556C46.404 27.4344 46.0902 28.8167 45.5666 30.639L43.5559 37.9903H41.65Z" fill="white"/>
<path d="M61.6062 37.9903L58.0239 23.8734H59.951L61.6266 31.0159C62.0453 32.7751 62.4231 34.5342 62.6738 35.896H62.7156C62.9467 34.4924 63.3858 32.8168 63.8676 30.9946L65.753 23.8734H67.6588L69.3762 31.0363C69.7745 32.7119 70.1514 34.3876 70.3611 35.8747H70.4029C70.6963 34.3253 71.0936 32.7537 71.5336 30.9946L73.3977 23.8734H75.2618L71.2616 37.9903H69.3558L67.5753 30.639C67.1353 28.8371 66.8419 27.4549 66.6535 26.0308H66.6117C66.3601 27.4344 66.0463 28.8167 65.5228 30.639L63.512 37.9903H61.6062Z" fill="white"/>
<path d="M77.268 36.9014C77.268 36.1263 77.7916 35.5814 78.5249 35.5814C79.2582 35.5814 79.7605 36.1263 79.7605 36.9014C79.7605 37.6552 79.2787 38.2206 78.5036 38.2206C77.7711 38.2206 77.268 37.6552 77.268 36.9014Z" fill="white"/>
</svg>
